<svg xmlns="http://www.w3.org/2000/svg" xmlns:xlink="http://www.w3.org/1999/xlink" contentStyleType="text/css" data-diagram-type="ACTIVITY" height="990px" preserveAspectRatio="none" style="width:2477px;height:990px;background:#FFFFFF;" version="1.1" viewBox="0 0 2477 990" width="2477px" zoomAndPan="magnify"><defs/><g><ellipse cx="735.3342" cy="20" fill="#222222" rx="10" ry="10" style="stroke:#222222;stroke-width:1;"/><rect fill="#F1F1F1" height="34.1328" rx="12.5" ry="12.5" style="stroke:#181818;stroke-width:0.5;" width="135.1836" x="667.7424" y="50"/><text fill="#000000" font-family="sans-serif" font-size="12" lengthAdjust="spacing" textLength="111.3867" x="681.5392" y="71.6016">User created a task</text><polygon fill="#F1F1F1" points="624.746,104.1328,845.9223,104.1328,857.9223,116.1328,845.9223,128.1328,624.746,128.1328,612.746,116.1328,624.746,104.1328" style="stroke:#181818;stroke-width:0.5;"/><text fill="#000000" font-family="sans-serif" font-size="11" lengthAdjust="spacing" textLength="221.1763" x="624.746" y="120.29">Is the task assigned to a user at creation?</text><text fill="#000000" font-family="sans-serif" font-size="11" lengthAdjust="spacing" textLength="13.5835" x="599.1625" y="113.8125">no</text><text fill="#000000" font-family="sans-serif" font-size="11" lengthAdjust="spacing" textLength="17.4829" x="857.9223" y="113.8125">yes</text><rect fill="#F1F1F1" height="34.1328" rx="12.5" ry="12.5" style="stroke:#181818;stroke-width:0.5;" width="182.0352" x="11" y="138.1328"/><text fill="#000000" font-family="sans-serif" font-size="12" lengthAdjust="spacing" textLength="158.2383" x="24.7969" y="159.7344">Task creation ends for now</text><rect fill="#F1F1F1" height="34.1328" rx="12.5" ry="12.5" style="stroke:#181818;stroke-width:0.5;" width="162.6582" x="20.6885" y="207.2656"/><text fill="#000000" font-family="sans-serif" font-size="12" lengthAdjust="spacing" textLength="138.8613" x="34.4854" y="228.8672">Task status set as Open</text><ellipse cx="102.0176" cy="287.3984" fill="none" rx="11" ry="11" style="stroke:#222222;stroke-width:1;"/><ellipse cx="102.0176" cy="287.3984" fill="#222222" rx="6" ry="6" style="stroke:#222222;stroke-width:1;"/><polygon fill="#F1F1F1" points="1272.1974,138.1328,1505.1041,138.1328,1517.1041,150.1328,1505.1041,162.1328,1272.1974,162.1328,1260.1974,150.1328,1272.1974,138.1328" style="stroke:#181818;stroke-width:0.5;"/><text fill="#000000" font-family="sans-serif" font-size="11" lengthAdjust="spacing" textLength="232.9067" x="1272.1974" y="154.29">Is the task assigned to more than one user?</text><text fill="#000000" font-family="sans-serif" font-size="11" lengthAdjust="spacing" textLength="17.4829" x="1242.7145" y="147.8125">yes</text><text fill="#000000" font-family="sans-serif" font-size="11" lengthAdjust="spacing" textLength="13.5835" x="1517.1041" y="147.8125">no</text><rect fill="#F1F1F1" height="34.1328" rx="12.5" ry="12.5" style="stroke:#181818;stroke-width:0.5;" width="250.7246" x="698.2891" y="172.1328"/><text fill="#000000" font-family="sans-serif" font-size="12" lengthAdjust="spacing" textLength="226.9277" x="712.0859" y="193.7344">Notify the assignees (e.g., 3 assignees)</text><rect fill="#F1F1F1" height="34.1328" rx="12.5" ry="12.5" style="stroke:#181818;stroke-width:0.5;" width="254.457" x="696.4229" y="241.2656"/><text fill="#000000" font-family="sans-serif" font-size="12" lengthAdjust="spacing" textLength="230.6602" x="710.2197" y="262.8672">Three pending assignments are created</text><polygon fill="#F1F1F1" points="367.2837,354.3984,531.3813,354.3984,543.3813,366.3984,531.3813,378.3984,367.2837,378.3984,355.2837,366.3984,367.2837,354.3984" style="stroke:#181818;stroke-width:0.5;"/><text fill="#000000" font-family="sans-serif" font-size="11" lengthAdjust="spacing" textLength="47.561" x="453.3325" y="389.0332">accepted</text><text fill="#000000" font-family="sans-serif" font-size="11" lengthAdjust="spacing" textLength="164.0977" x="367.2837" y="370.5557">one assignee accepts the task?</text><rect fill="#F1F1F1" height="34.1328" rx="12.5" ry="12.5" style="stroke:#181818;stroke-width:0.5;" width="264.6758" x="316.9946" y="410.5332"/><text fill="#000000" font-family="sans-serif" font-size="12" lengthAdjust="spacing" textLength="240.8789" x="330.7915" y="432.1348">One assignment status is set to Accepted</text><rect fill="#F1F1F1" height="34.1328" rx="12.5" ry="12.5" style="stroke:#181818;stroke-width:0.5;" width="205.2793" x="346.6929" y="464.666"/><text fill="#000000" font-family="sans-serif" font-size="12" lengthAdjust="spacing" textLength="181.4824" x="360.4897" y="486.2676">Task status is set to InProgress</text><rect fill="#F1F1F1" height="34.1328" rx="12.5" ry="12.5" style="stroke:#181818;stroke-width:0.5;" width="287.1172" x="305.7739" y="518.7988"/><text fill="#000000" font-family="sans-serif" font-size="12" lengthAdjust="spacing" textLength="263.3203" x="319.5708" y="540.4004">Other assignment statuses are set to Blocked</text><polygon fill="#F1F1F1" points="371.5671,587.9316,527.0979,587.9316,539.0979,599.9316,527.0979,611.9316,371.5671,611.9316,359.5671,599.9316,371.5671,587.9316" style="stroke:#181818;stroke-width:0.5;"/><text fill="#000000" font-family="sans-serif" font-size="11" lengthAdjust="spacing" textLength="155.5308" x="371.5671" y="604.0889">assignee completes the task?</text><text fill="#000000" font-family="sans-serif" font-size="11" lengthAdjust="spacing" textLength="17.4829" x="342.0842" y="597.6113">yes</text><text fill="#000000" font-family="sans-serif" font-size="11" lengthAdjust="spacing" textLength="13.5835" x="539.0979" y="597.6113">no</text><rect fill="#F1F1F1" height="34.1328" rx="12.5" ry="12.5" style="stroke:#181818;stroke-width:0.5;" width="246.6934" x="203.0352" y="621.9316"/><text fill="#000000" font-family="sans-serif" font-size="12" lengthAdjust="spacing" textLength="222.8965" x="216.832" y="643.5332">Assignment status is set to completed</text><rect fill="#98FB98" height="34.1328" rx="12.5" ry="12.5" style="stroke:#181818;stroke-width:0.5;" width="205.3027" x="223.7305" y="676.0645"/><text fill="#000000" font-family="sans-serif" font-size="12" lengthAdjust="spacing" textLength="181.5059" x="237.5273" y="697.666">Task status is set to completed</text><rect fill="#F1F1F1" height="34.1328" rx="12.5" ry="12.5" style="stroke:#181818;stroke-width:0.5;" width="132.3242" x="260.2197" y="745.1973"/><text fill="#000000" font-family="sans-serif" font-size="12" lengthAdjust="spacing" textLength="108.5273" x="274.0166" y="766.7988">notify the assigner</text><rect fill="#F1F1F1" height="34.1328" rx="12.5" ry="12.5" style="stroke:#181818;stroke-width:0.5;" width="205.1094" x="469.7285" y="621.9316"/><text fill="#000000" font-family="sans-serif" font-size="12" lengthAdjust="spacing" textLength="181.3125" x="483.5254" y="643.5332">Task status stays as InProgress</text><polygon fill="#F1F1F1" points="449.3325,785.3301,461.3325,797.3301,449.3325,809.3301,437.3325,797.3301,449.3325,785.3301" style="stroke:#181818;stroke-width:0.5;"/><polygon fill="#F1F1F1" points="755.428,354.3984,914.8689,354.3984,926.8689,366.3984,914.8689,378.3984,755.428,378.3984,743.428,366.3984,755.428,354.3984" style="stroke:#181818;stroke-width:0.5;"/><text fill="#000000" font-family="sans-serif" font-size="11" lengthAdjust="spacing" textLength="42.9043" x="839.1484" y="389.0332">rejected</text><text fill="#000000" font-family="sans-serif" font-size="11" lengthAdjust="spacing" textLength="159.4409" x="755.428" y="370.5557">one assignee rejects the task?</text><rect fill="#F1F1F1" height="34.1328" rx="12.5" ry="12.5" style="stroke:#181818;stroke-width:0.5;" width="260.6211" x="704.8379" y="410.5332"/><text fill="#000000" font-family="sans-serif" font-size="12" lengthAdjust="spacing" textLength="236.8242" x="718.6348" y="432.1348">One assignment status is set to Rejected</text><rect fill="#F1F1F1" height="34.1328" rx="12.5" ry="12.5" style="stroke:#181818;stroke-width:0.5;" width="194.3047" x="737.9961" y="464.666"/><text fill="#000000" font-family="sans-serif" font-size="12" lengthAdjust="spacing" textLength="170.5078" x="751.793" y="486.2676">the task status stays as Open</text><polygon fill="#F1F1F1" points="1035.5313,354.3984,1189.209,354.3984,1201.209,366.3984,1189.209,378.3984,1035.5313,378.3984,1023.5313,366.3984,1035.5313,354.3984" style="stroke:#181818;stroke-width:0.5;"/><text fill="#000000" font-family="sans-serif" font-size="11" lengthAdjust="spacing" textLength="42.9043" x="1116.3701" y="389.0332">rejected</text><text fill="#000000" font-family="sans-serif" font-size="11" lengthAdjust="spacing" textLength="153.6777" x="1035.5313" y="370.5557">All assignees reject the task?</text><text fill="#000000" font-family="sans-serif" font-size="11" lengthAdjust="spacing" textLength="145.417" x="1201.209" y="364.0781">All assignees stay Pending?</text><rect fill="#F1F1F1" height="34.1328" rx="12.5" ry="12.5" style="stroke:#181818;stroke-width:0.5;" width="273.8223" x="975.459" y="410.5332"/><text fill="#000000" font-family="sans-serif" font-size="12" lengthAdjust="spacing" textLength="250.0254" x="989.2559" y="432.1348">All assignment statuses are set to Rejected</text><rect fill="#FF0000" height="34.1328" rx="12.5" ry="12.5" style="stroke:#181818;stroke-width:0.5;" width="193.6309" x="1015.5547" y="464.666"/><text fill="#000000" font-family="sans-serif" font-size="12" lengthAdjust="spacing" textLength="169.834" x="1029.3516" y="486.2676">Task status is set to Rejected</text><rect fill="#F1F1F1" height="34.1328" rx="12.5" ry="12.5" style="stroke:#181818;stroke-width:0.5;" width="132.3242" x="1046.208" y="518.7988"/><text fill="#000000" font-family="sans-serif" font-size="12" lengthAdjust="spacing" textLength="108.5273" x="1060.0049" y="540.4004">notify the assigner</text><rect fill="#F1F1F1" height="34.1328" rx="12.5" ry="12.5" style="stroke:#181818;stroke-width:0.5;" width="174.9863" x="1269.2813" y="581.8877"/><text fill="#000000" font-family="sans-serif" font-size="12" lengthAdjust="spacing" textLength="151.1895" x="1283.0781" y="603.4893">Task status stays as Open</text><polygon fill="#F1F1F1" points="823.6514,310.3984,835.6514,322.3984,823.6514,334.3984,811.6514,322.3984,823.6514,310.3984" style="stroke:#181818;stroke-width:0.5;"/><polygon fill="#F1F1F1" points="759.0667,901.4648,888.2361,901.4648,900.2361,913.4648,888.2361,925.4648,759.0667,925.4648,747.0667,913.4648,759.0667,901.4648" style="stroke:#181818;stroke-width:0.5;"/><text fill="#000000" font-family="sans-serif" font-size="11" lengthAdjust="spacing" textLength="13.5835" x="827.6514" y="936.0996">no</text><text fill="#000000" font-family="sans-serif" font-size="11" lengthAdjust="spacing" textLength="129.1694" x="759.0667" y="917.6221">assignee changes mind?</text><text fill="#000000" font-family="sans-serif" font-size="11" lengthAdjust="spacing" textLength="17.4829" x="900.2361" y="911.1445">yes</text><ellipse cx="823.6514" cy="968.5996" fill="none" rx="11" ry="11" style="stroke:#222222;stroke-width:1;"/><ellipse cx="823.6514" cy="968.5996" fill="#222222" rx="6" ry="6" style="stroke:#222222;stroke-width:1;"/><rect fill="#F1F1F1" height="34.1328" rx="12.5" ry="12.5" style="stroke:#181818;stroke-width:0.5;" width="214.666" x="1856.3171" y="172.1328"/><text fill="#000000" font-family="sans-serif" font-size="12" lengthAdjust="spacing" textLength="190.8691" x="1870.114" y="193.7344">A pending assignment is created</text><rect fill="#F1F1F1" height="34.1328" rx="12.5" ry="12.5" style="stroke:#181818;stroke-width:0.5;" width="135.5176" x="1895.8914" y="241.2656"/><text fill="#000000" font-family="sans-serif" font-size="12" lengthAdjust="spacing" textLength="111.7207" x="1909.6882" y="262.8672">Notify the assignee</text><polygon fill="#F1F1F1" points="1674.1123,354.3984,1815.0176,354.3984,1827.0176,366.3984,1815.0176,378.3984,1674.1123,378.3984,1662.1123,366.3984,1674.1123,354.3984" style="stroke:#181818;stroke-width:0.5;"/><text fill="#000000" font-family="sans-serif" font-size="11" lengthAdjust="spacing" textLength="47.561" x="1748.5649" y="389.0332">accepted</text><text fill="#000000" font-family="sans-serif" font-size="11" lengthAdjust="spacing" textLength="140.9053" x="1674.1123" y="370.5557">assignee accepts the task?</text><rect fill="#F1F1F1" height="34.1328" rx="12.5" ry="12.5" style="stroke:#181818;stroke-width:0.5;" width="237.4238" x="1625.853" y="410.5332"/><text fill="#000000" font-family="sans-serif" font-size="12" lengthAdjust="spacing" textLength="213.627" x="1639.6499" y="432.1348">Assignment status is set to accepted</text><rect fill="#F1F1F1" height="34.1328" rx="12.5" ry="12.5" style="stroke:#181818;stroke-width:0.5;" width="205.2793" x="1641.9253" y="464.666"/><text fill="#000000" font-family="sans-serif" font-size="12" lengthAdjust="spacing" textLength="181.4824" x="1655.7222" y="486.2676">Task status is set to InProgress</text><polygon fill="#F1F1F1" points="1666.7996,518.7988,1822.3303,518.7988,1834.3303,530.7988,1822.3303,542.7988,1666.7996,542.7988,1654.7996,530.7988,1666.7996,518.7988" style="stroke:#181818;stroke-width:0.5;"/><text fill="#000000" font-family="sans-serif" font-size="11" lengthAdjust="spacing" textLength="155.5308" x="1666.7996" y="534.9561">assignee completes the task?</text><text fill="#000000" font-family="sans-serif" font-size="11" lengthAdjust="spacing" textLength="17.4829" x="1637.3167" y="528.4785">yes</text><text fill="#000000" font-family="sans-serif" font-size="11" lengthAdjust="spacing" textLength="13.5835" x="1834.3303" y="528.4785">no</text><rect fill="#F1F1F1" height="34.1328" rx="12.5" ry="12.5" style="stroke:#181818;stroke-width:0.5;" width="246.6934" x="1498.2676" y="552.7988"/><text fill="#000000" font-family="sans-serif" font-size="12" lengthAdjust="spacing" textLength="222.8965" x="1512.0645" y="574.4004">Assignment status is set to completed</text><rect fill="#98FB98" height="34.1328" rx="12.5" ry="12.5" style="stroke:#181818;stroke-width:0.5;" width="205.3027" x="1518.9629" y="621.9316"/><text fill="#000000" font-family="sans-serif" font-size="12" lengthAdjust="spacing" textLength="181.5059" x="1532.7598" y="643.5332">Task status is set to completed</text><rect fill="#F1F1F1" height="34.1328" rx="12.5" ry="12.5" style="stroke:#181818;stroke-width:0.5;" width="132.3242" x="1555.4521" y="676.0645"/><text fill="#000000" font-family="sans-serif" font-size="12" lengthAdjust="spacing" textLength="108.5273" x="1569.249" y="697.666">notify the assigner</text><rect fill="#F1F1F1" height="34.1328" rx="12.5" ry="12.5" style="stroke:#181818;stroke-width:0.5;" width="205.1094" x="1764.9609" y="552.7988"/><text fill="#000000" font-family="sans-serif" font-size="12" lengthAdjust="spacing" textLength="181.3125" x="1778.7578" y="574.4004">Task status stays as InProgress</text><polygon fill="#F1F1F1" points="1744.5649,716.1973,1756.5649,728.1973,1744.5649,740.1973,1732.5649,728.1973,1744.5649,716.1973" style="stroke:#181818;stroke-width:0.5;"/><polygon fill="#F1F1F1" points="2061.7014,354.3984,2197.95,354.3984,2209.95,366.3984,2197.95,378.3984,2061.7014,378.3984,2049.7014,366.3984,2061.7014,354.3984" style="stroke:#181818;stroke-width:0.5;"/><text fill="#000000" font-family="sans-serif" font-size="11" lengthAdjust="spacing" textLength="42.9043" x="2133.8257" y="389.0332">rejected</text><text fill="#000000" font-family="sans-serif" font-size="11" lengthAdjust="spacing" textLength="136.2485" x="2061.7014" y="370.5557">assignee rejects the task?</text><text fill="#000000" font-family="sans-serif" font-size="11" lengthAdjust="spacing" textLength="13.5835" x="2036.1179" y="364.0781">no</text><text fill="#000000" font-family="sans-serif" font-size="11" lengthAdjust="spacing" textLength="124.8188" x="2209.95" y="364.0781">assignee does nothing?</text><rect fill="#F1F1F1" height="34.1328" rx="12.5" ry="12.5" style="stroke:#181818;stroke-width:0.5;" width="232.3438" x="2013.6538" y="410.5332"/><text fill="#000000" font-family="sans-serif" font-size="12" lengthAdjust="spacing" textLength="208.5469" x="2027.4507" y="432.1348">Assignment status is set to rejected</text><rect fill="#FF0000" height="34.1328" rx="12.5" ry="12.5" style="stroke:#181818;stroke-width:0.5;" width="190.9531" x="2034.3491" y="464.666"/><text fill="#000000" font-family="sans-serif" font-size="12" lengthAdjust="spacing" textLength="167.1563" x="2048.146" y="486.2676">Task status is set to rejected</text><rect fill="#F1F1F1" height="34.1328" rx="12.5" ry="12.5" style="stroke:#181818;stroke-width:0.5;" width="132.3242" x="2063.6636" y="518.7988"/><text fill="#000000" font-family="sans-serif" font-size="12" lengthAdjust="spacing" textLength="108.5273" x="2077.4604" y="540.4004">notify the assigner</text><rect fill="#F1F1F1" height="34.1328" rx="12.5" ry="12.5" style="stroke:#181818;stroke-width:0.5;" width="173.0352" x="2265.9976" y="547.3213"/><text fill="#000000" font-family="sans-serif" font-size="12" lengthAdjust="spacing" textLength="149.2383" x="2279.7944" y="568.9229">Task status stays as open</text><polygon fill="#F1F1F1" points="1963.6501,310.3984,1975.6501,322.3984,1963.6501,334.3984,1951.6501,322.3984,1963.6501,310.3984" style="stroke:#181818;stroke-width:0.5;"/><polygon fill="#F1F1F1" points="1899.0654,835.1973,2028.2349,835.1973,2040.2349,847.1973,2028.2349,859.1973,1899.0654,859.1973,1887.0654,847.1973,1899.0654,835.1973" style="stroke:#181818;stroke-width:0.5;"/><text fill="#000000" font-family="sans-serif" font-size="11" lengthAdjust="spacing" textLength="13.5835" x="1967.6501" y="869.832">no</text><text fill="#000000" font-family="sans-serif" font-size="11" lengthAdjust="spacing" textLength="129.1694" x="1899.0654" y="851.3545">assignee changes mind?</text><text fill="#000000" font-family="sans-serif" font-size="11" lengthAdjust="spacing" textLength="17.4829" x="2040.2349" y="844.877">yes</text><ellipse cx="1963.6501" cy="902.332" fill="none" rx="11" ry="11" style="stroke:#222222;stroke-width:1;"/><ellipse cx="1963.6501" cy="902.332" fill="#222222" rx="6" ry="6" style="stroke:#222222;stroke-width:1;"/><line style="stroke:#181818;stroke-width:1;" x1="735.3342" x2="735.3342" y1="30" y2="50"/><polygon fill="#181818" points="731.3342,40,735.3342,50,739.3342,40,735.3342,44" style="stroke:#181818;stroke-width:1;"/><line style="stroke:#181818;stroke-width:1;" x1="102.0176" x2="102.0176" y1="172.2656" y2="207.2656"/><polygon fill="#181818" points="98.0176,197.2656,102.0176,207.2656,106.0176,197.2656,102.0176,201.2656" style="stroke:#181818;stroke-width:1;"/><line style="stroke:#181818;stroke-width:1;" x1="102.0176" x2="102.0176" y1="241.3984" y2="276.3984"/><polygon fill="#181818" points="98.0176,266.3984,102.0176,276.3984,106.0176,266.3984,102.0176,270.3984" style="stroke:#181818;stroke-width:1;"/><line style="stroke:#181818;stroke-width:1;" x1="823.6514" x2="823.6514" y1="206.2656" y2="241.2656"/><polygon fill="#181818" points="819.6514,231.2656,823.6514,241.2656,827.6514,231.2656,823.6514,235.2656" style="stroke:#181818;stroke-width:1;"/><line style="stroke:#181818;stroke-width:1;" x1="449.3325" x2="449.3325" y1="444.666" y2="464.666"/><polygon fill="#181818" points="445.3325,454.666,449.3325,464.666,453.3325,454.666,449.3325,458.666" style="stroke:#181818;stroke-width:1;"/><line style="stroke:#181818;stroke-width:1;" x1="449.3325" x2="449.3325" y1="498.7988" y2="518.7988"/><polygon fill="#181818" points="445.3325,508.7988,449.3325,518.7988,453.3325,508.7988,449.3325,512.7988" style="stroke:#181818;stroke-width:1;"/><line style="stroke:#181818;stroke-width:1;" x1="326.3818" x2="326.3818" y1="656.0645" y2="676.0645"/><polygon fill="#181818" points="322.3818,666.0645,326.3818,676.0645,330.3818,666.0645,326.3818,670.0645" style="stroke:#181818;stroke-width:1;"/><line style="stroke:#181818;stroke-width:1;" x1="326.3818" x2="326.3818" y1="710.1973" y2="745.1973"/><polygon fill="#181818" points="322.3818,735.1973,326.3818,745.1973,330.3818,735.1973,326.3818,739.1973" style="stroke:#181818;stroke-width:1;"/><line style="stroke:#181818;stroke-width:1;" x1="359.5671" x2="326.3818" y1="599.9316" y2="599.9316"/><line style="stroke:#181818;stroke-width:1;" x1="326.3818" x2="326.3818" y1="599.9316" y2="621.9316"/><polygon fill="#181818" points="322.3818,611.9316,326.3818,621.9316,330.3818,611.9316,326.3818,615.9316" style="stroke:#181818;stroke-width:1;"/><line style="stroke:#181818;stroke-width:1;" x1="539.0979" x2="572.2832" y1="599.9316" y2="599.9316"/><line style="stroke:#181818;stroke-width:1;" x1="572.2832" x2="572.2832" y1="599.9316" y2="621.9316"/><polygon fill="#181818" points="568.2832,611.9316,572.2832,621.9316,576.2832,611.9316,572.2832,615.9316" style="stroke:#181818;stroke-width:1;"/><line style="stroke:#181818;stroke-width:1;" x1="326.3818" x2="326.3818" y1="779.3301" y2="797.3301"/><line style="stroke:#181818;stroke-width:1;" x1="326.3818" x2="437.3325" y1="797.3301" y2="797.3301"/><polygon fill="#181818" points="427.3325,793.3301,437.3325,797.3301,427.3325,801.3301,431.3325,797.3301" style="stroke:#181818;stroke-width:1;"/><line style="stroke:#181818;stroke-width:1;" x1="572.2832" x2="572.2832" y1="656.0645" y2="797.3301"/><line style="stroke:#181818;stroke-width:1;" x1="572.2832" x2="461.3325" y1="797.3301" y2="797.3301"/><polygon fill="#181818" points="471.3325,793.3301,461.3325,797.3301,471.3325,801.3301,467.3325,797.3301" style="stroke:#181818;stroke-width:1;"/><line style="stroke:#181818;stroke-width:1;" x1="449.3325" x2="449.3325" y1="552.9316" y2="587.9316"/><polygon fill="#181818" points="445.3325,577.9316,449.3325,587.9316,453.3325,577.9316,449.3325,581.9316" style="stroke:#181818;stroke-width:1;"/><line style="stroke:#181818;stroke-width:1;" x1="835.1484" x2="835.1484" y1="444.666" y2="464.666"/><polygon fill="#181818" points="831.1484,454.666,835.1484,464.666,839.1484,454.666,835.1484,458.666" style="stroke:#181818;stroke-width:1;"/><line style="stroke:#181818;stroke-width:1;" x1="1112.3701" x2="1112.3701" y1="444.666" y2="464.666"/><polygon fill="#181818" points="1108.3701,454.666,1112.3701,464.666,1116.3701,454.666,1112.3701,458.666" style="stroke:#181818;stroke-width:1;"/><line style="stroke:#181818;stroke-width:1;" x1="1112.3701" x2="1112.3701" y1="498.7988" y2="518.7988"/><polygon fill="#181818" points="1108.3701,508.7988,1112.3701,518.7988,1116.3701,508.7988,1112.3701,512.7988" style="stroke:#181818;stroke-width:1;"/><line style="stroke:#181818;stroke-width:1;" x1="449.3325" x2="449.3325" y1="378.3984" y2="410.5332"/><polygon fill="#181818" points="445.3325,400.5332,449.3325,410.5332,453.3325,400.5332,449.3325,404.5332" style="stroke:#181818;stroke-width:1;"/><line style="stroke:#181818;stroke-width:1;" x1="449.3325" x2="449.3325" y1="809.3301" y2="856.3301"/><polygon fill="#181818" points="445.3325,846.3301,449.3325,856.3301,453.3325,846.3301,449.3325,850.3301" style="stroke:#181818;stroke-width:1;"/><line style="stroke:#181818;stroke-width:1;" x1="835.1484" x2="835.1484" y1="378.3984" y2="410.5332"/><polygon fill="#181818" points="831.1484,400.5332,835.1484,410.5332,839.1484,400.5332,835.1484,404.5332" style="stroke:#181818;stroke-width:1;"/><line style="stroke:#181818;stroke-width:1;" x1="835.1484" x2="835.1484" y1="498.7988" y2="856.3301"/><polygon fill="#181818" points="831.1484,846.3301,835.1484,856.3301,839.1484,846.3301,835.1484,850.3301" style="stroke:#181818;stroke-width:1;"/><line style="stroke:#181818;stroke-width:1;" x1="1112.3701" x2="1112.3701" y1="378.3984" y2="410.5332"/><polygon fill="#181818" points="1108.3701,400.5332,1112.3701,410.5332,1116.3701,400.5332,1112.3701,404.5332" style="stroke:#181818;stroke-width:1;"/><line style="stroke:#181818;stroke-width:1;" x1="1112.3701" x2="1112.3701" y1="552.9316" y2="856.3301"/><polygon fill="#181818" points="1108.3701,846.3301,1112.3701,856.3301,1116.3701,846.3301,1112.3701,850.3301" style="stroke:#181818;stroke-width:1;"/><line style="stroke:#181818;stroke-width:1;" x1="543.3813" x2="743.428" y1="366.3984" y2="366.3984"/><polygon fill="#181818" points="733.428,362.3984,743.428,366.3984,733.428,370.3984,737.428,366.3984" style="stroke:#181818;stroke-width:1;"/><line style="stroke:#181818;stroke-width:1;" x1="926.8689" x2="1023.5313" y1="366.3984" y2="366.3984"/><polygon fill="#181818" points="1013.5313,362.3984,1023.5313,366.3984,1013.5313,370.3984,1017.5313,366.3984" style="stroke:#181818;stroke-width:1;"/><line style="stroke:#181818;stroke-width:1;" x1="823.6514" x2="823.6514" y1="334.3984" y2="339.3984"/><line style="stroke:#181818;stroke-width:1;" x1="823.6514" x2="449.3325" y1="339.3984" y2="339.3984"/><line style="stroke:#181818;stroke-width:1;" x1="449.3325" x2="449.3325" y1="339.3984" y2="354.3984"/><polygon fill="#181818" points="445.3325,344.3984,449.3325,354.3984,453.3325,344.3984,449.3325,348.3984" style="stroke:#181818;stroke-width:1;"/><line style="stroke:#181818;stroke-width:1;" x1="1201.209" x2="1356.7744" y1="366.3984" y2="366.3984"/><line style="stroke:#181818;stroke-width:1;" x1="1356.7744" x2="1356.7744" y1="366.3984" y2="581.8877"/><polygon fill="#181818" points="1352.7744,571.8877,1356.7744,581.8877,1360.7744,571.8877,1356.7744,575.8877" style="stroke:#181818;stroke-width:1;"/><line style="stroke:#181818;stroke-width:1;" x1="1356.7744" x2="1356.7744" y1="616.0205" y2="856.3301"/><polygon fill="#181818" points="1352.7744,846.3301,1356.7744,856.3301,1360.7744,846.3301,1356.7744,850.3301" style="stroke:#181818;stroke-width:1;"/><line style="stroke:#181818;stroke-width:1;" x1="449.3325" x2="1356.7744" y1="856.3301" y2="856.3301"/><line style="stroke:#181818;stroke-width:1;" x1="900.2361" x2="1456.2676" y1="913.4648" y2="913.4648"/><polygon fill="#181818" points="1452.2676,608.9541,1456.2676,598.9541,1460.2676,608.9541,1456.2676,604.9541" style="stroke:#181818;stroke-width:1;"/><line style="stroke:#181818;stroke-width:1;" x1="1456.2676" x2="1456.2676" y1="322.3984" y2="913.4648"/><line style="stroke:#181818;stroke-width:1;" x1="1456.2676" x2="835.6514" y1="322.3984" y2="322.3984"/><polygon fill="#181818" points="845.6514,318.3984,835.6514,322.3984,845.6514,326.3984,841.6514,322.3984" style="stroke:#181818;stroke-width:1;"/><line style="stroke:#181818;stroke-width:1;" x1="823.6514" x2="823.6514" y1="856.3301" y2="901.4648"/><polygon fill="#181818" points="819.6514,891.4648,823.6514,901.4648,827.6514,891.4648,823.6514,895.4648" style="stroke:#181818;stroke-width:1;"/><line style="stroke:#181818;stroke-width:1;" x1="823.6514" x2="823.6514" y1="275.3984" y2="310.3984"/><polygon fill="#181818" points="819.6514,300.3984,823.6514,310.3984,827.6514,300.3984,823.6514,304.3984" style="stroke:#181818;stroke-width:1;"/><line style="stroke:#181818;stroke-width:1;" x1="823.6514" x2="823.6514" y1="925.4648" y2="957.5996"/><polygon fill="#181818" points="819.6514,947.5996,823.6514,957.5996,827.6514,947.5996,823.6514,951.5996" style="stroke:#181818;stroke-width:1;"/><line style="stroke:#181818;stroke-width:1;" x1="1963.6501" x2="1963.6501" y1="206.2656" y2="241.2656"/><polygon fill="#181818" points="1959.6501,231.2656,1963.6501,241.2656,1967.6501,231.2656,1963.6501,235.2656" style="stroke:#181818;stroke-width:1;"/><line style="stroke:#181818;stroke-width:1;" x1="1744.5649" x2="1744.5649" y1="444.666" y2="464.666"/><polygon fill="#181818" points="1740.5649,454.666,1744.5649,464.666,1748.5649,454.666,1744.5649,458.666" style="stroke:#181818;stroke-width:1;"/><line style="stroke:#181818;stroke-width:1;" x1="1621.6143" x2="1621.6143" y1="586.9316" y2="621.9316"/><polygon fill="#181818" points="1617.6143,611.9316,1621.6143,621.9316,1625.6143,611.9316,1621.6143,615.9316" style="stroke:#181818;stroke-width:1;"/><line style="stroke:#181818;stroke-width:1;" x1="1621.6143" x2="1621.6143" y1="656.0645" y2="676.0645"/><polygon fill="#181818" points="1617.6143,666.0645,1621.6143,676.0645,1625.6143,666.0645,1621.6143,670.0645" style="stroke:#181818;stroke-width:1;"/><line style="stroke:#181818;stroke-width:1;" x1="1654.7996" x2="1621.6143" y1="530.7988" y2="530.7988"/><line style="stroke:#181818;stroke-width:1;" x1="1621.6143" x2="1621.6143" y1="530.7988" y2="552.7988"/><polygon fill="#181818" points="1617.6143,542.7988,1621.6143,552.7988,1625.6143,542.7988,1621.6143,546.7988" style="stroke:#181818;stroke-width:1;"/><line style="stroke:#181818;stroke-width:1;" x1="1834.3303" x2="1867.5156" y1="530.7988" y2="530.7988"/><line style="stroke:#181818;stroke-width:1;" x1="1867.5156" x2="1867.5156" y1="530.7988" y2="552.7988"/><polygon fill="#181818" points="1863.5156,542.7988,1867.5156,552.7988,1871.5156,542.7988,1867.5156,546.7988" style="stroke:#181818;stroke-width:1;"/><line style="stroke:#181818;stroke-width:1;" x1="1621.6143" x2="1621.6143" y1="710.1973" y2="728.1973"/><line style="stroke:#181818;stroke-width:1;" x1="1621.6143" x2="1732.5649" y1="728.1973" y2="728.1973"/><polygon fill="#181818" points="1722.5649,724.1973,1732.5649,728.1973,1722.5649,732.1973,1726.5649,728.1973" style="stroke:#181818;stroke-width:1;"/><line style="stroke:#181818;stroke-width:1;" x1="1867.5156" x2="1867.5156" y1="586.9316" y2="728.1973"/><line style="stroke:#181818;stroke-width:1;" x1="1867.5156" x2="1756.5649" y1="728.1973" y2="728.1973"/><polygon fill="#181818" points="1766.5649,724.1973,1756.5649,728.1973,1766.5649,732.1973,1762.5649,728.1973" style="stroke:#181818;stroke-width:1;"/><line style="stroke:#181818;stroke-width:1;" x1="1744.5649" x2="1744.5649" y1="498.7988" y2="518.7988"/><polygon fill="#181818" points="1740.5649,508.7988,1744.5649,518.7988,1748.5649,508.7988,1744.5649,512.7988" style="stroke:#181818;stroke-width:1;"/><line style="stroke:#181818;stroke-width:1;" x1="2129.8257" x2="2129.8257" y1="444.666" y2="464.666"/><polygon fill="#181818" points="2125.8257,454.666,2129.8257,464.666,2133.8257,454.666,2129.8257,458.666" style="stroke:#181818;stroke-width:1;"/><line style="stroke:#181818;stroke-width:1;" x1="2129.8257" x2="2129.8257" y1="498.7988" y2="518.7988"/><polygon fill="#181818" points="2125.8257,508.7988,2129.8257,518.7988,2133.8257,508.7988,2129.8257,512.7988" style="stroke:#181818;stroke-width:1;"/><line style="stroke:#181818;stroke-width:1;" x1="1744.5649" x2="1744.5649" y1="378.3984" y2="410.5332"/><polygon fill="#181818" points="1740.5649,400.5332,1744.5649,410.5332,1748.5649,400.5332,1744.5649,404.5332" style="stroke:#181818;stroke-width:1;"/><line style="stroke:#181818;stroke-width:1;" x1="1744.5649" x2="1744.5649" y1="740.1973" y2="815.1973"/><polygon fill="#181818" points="1740.5649,805.1973,1744.5649,815.1973,1748.5649,805.1973,1744.5649,809.1973" style="stroke:#181818;stroke-width:1;"/><line style="stroke:#181818;stroke-width:1;" x1="2129.8257" x2="2129.8257" y1="378.3984" y2="410.5332"/><polygon fill="#181818" points="2125.8257,400.5332,2129.8257,410.5332,2133.8257,400.5332,2129.8257,404.5332" style="stroke:#181818;stroke-width:1;"/><line style="stroke:#181818;stroke-width:1;" x1="2129.8257" x2="2129.8257" y1="552.9316" y2="815.1973"/><polygon fill="#181818" points="2125.8257,805.1973,2129.8257,815.1973,2133.8257,805.1973,2129.8257,809.1973" style="stroke:#181818;stroke-width:1;"/><line style="stroke:#181818;stroke-width:1;" x1="1827.0176" x2="2049.7014" y1="366.3984" y2="366.3984"/><polygon fill="#181818" points="2039.7014,362.3984,2049.7014,366.3984,2039.7014,370.3984,2043.7014,366.3984" style="stroke:#181818;stroke-width:1;"/><line style="stroke:#181818;stroke-width:1;" x1="1963.6501" x2="1963.6501" y1="334.3984" y2="339.3984"/><line style="stroke:#181818;stroke-width:1;" x1="1963.6501" x2="1744.5649" y1="339.3984" y2="339.3984"/><line style="stroke:#181818;stroke-width:1;" x1="1744.5649" x2="1744.5649" y1="339.3984" y2="354.3984"/><polygon fill="#181818" points="1740.5649,344.3984,1744.5649,354.3984,1748.5649,344.3984,1744.5649,348.3984" style="stroke:#181818;stroke-width:1;"/><line style="stroke:#181818;stroke-width:1;" x1="2209.95" x2="2352.5151" y1="366.3984" y2="366.3984"/><line style="stroke:#181818;stroke-width:1;" x1="2352.5151" x2="2352.5151" y1="366.3984" y2="547.3213"/><polygon fill="#181818" points="2348.5151,537.3213,2352.5151,547.3213,2356.5151,537.3213,2352.5151,541.3213" style="stroke:#181818;stroke-width:1;"/><line style="stroke:#181818;stroke-width:1;" x1="2352.5151" x2="2352.5151" y1="581.4541" y2="815.1973"/><polygon fill="#181818" points="2348.5151,805.1973,2352.5151,815.1973,2356.5151,805.1973,2352.5151,809.1973" style="stroke:#181818;stroke-width:1;"/><line style="stroke:#181818;stroke-width:1;" x1="1744.5649" x2="2352.5151" y1="815.1973" y2="815.1973"/><line style="stroke:#181818;stroke-width:1;" x1="2040.2349" x2="2451.0327" y1="847.1973" y2="847.1973"/><polygon fill="#181818" points="2447.0327,574.3877,2451.0327,564.3877,2455.0327,574.3877,2451.0327,570.3877" style="stroke:#181818;stroke-width:1;"/><line style="stroke:#181818;stroke-width:1;" x1="2451.0327" x2="2451.0327" y1="322.3984" y2="847.1973"/><line style="stroke:#181818;stroke-width:1;" x1="2451.0327" x2="1975.6501" y1="322.3984" y2="322.3984"/><polygon fill="#181818" points="1985.6501,318.3984,1975.6501,322.3984,1985.6501,326.3984,1981.6501,322.3984" style="stroke:#181818;stroke-width:1;"/><line style="stroke:#181818;stroke-width:1;" x1="1963.6501" x2="1963.6501" y1="815.1973" y2="835.1973"/><polygon fill="#181818" points="1959.6501,825.1973,1963.6501,835.1973,1967.6501,825.1973,1963.6501,829.1973" style="stroke:#181818;stroke-width:1;"/><line style="stroke:#181818;stroke-width:1;" x1="1963.6501" x2="1963.6501" y1="275.3984" y2="310.3984"/><polygon fill="#181818" points="1959.6501,300.3984,1963.6501,310.3984,1967.6501,300.3984,1963.6501,304.3984" style="stroke:#181818;stroke-width:1;"/><line style="stroke:#181818;stroke-width:1;" x1="1963.6501" x2="1963.6501" y1="859.1973" y2="891.332"/><polygon fill="#181818" points="1959.6501,881.332,1963.6501,891.332,1967.6501,881.332,1963.6501,885.332" style="stroke:#181818;stroke-width:1;"/><line style="stroke:#181818;stroke-width:1;" x1="1260.1974" x2="823.6514" y1="150.1328" y2="150.1328"/><line style="stroke:#181818;stroke-width:1;" x1="823.6514" x2="823.6514" y1="150.1328" y2="172.1328"/><polygon fill="#181818" points="819.6514,162.1328,823.6514,172.1328,827.6514,162.1328,823.6514,166.1328" style="stroke:#181818;stroke-width:1;"/><line style="stroke:#181818;stroke-width:1;" x1="1517.1041" x2="1963.6501" y1="150.1328" y2="150.1328"/><line style="stroke:#181818;stroke-width:1;" x1="1963.6501" x2="1963.6501" y1="150.1328" y2="172.1328"/><polygon fill="#181818" points="1959.6501,162.1328,1963.6501,172.1328,1967.6501,162.1328,1963.6501,166.1328" style="stroke:#181818;stroke-width:1;"/><line style="stroke:#181818;stroke-width:1;" x1="612.746" x2="102.0176" y1="116.1328" y2="116.1328"/><line style="stroke:#181818;stroke-width:1;" x1="102.0176" x2="102.0176" y1="116.1328" y2="138.1328"/><polygon fill="#181818" points="98.0176,128.1328,102.0176,138.1328,106.0176,128.1328,102.0176,132.1328" style="stroke:#181818;stroke-width:1;"/><line style="stroke:#181818;stroke-width:1;" x1="857.9223" x2="1388.6508" y1="116.1328" y2="116.1328"/><line style="stroke:#181818;stroke-width:1;" x1="1388.6508" x2="1388.6508" y1="116.1328" y2="138.1328"/><polygon fill="#181818" points="1384.6508,128.1328,1388.6508,138.1328,1392.6508,128.1328,1388.6508,132.1328" style="stroke:#181818;stroke-width:1;"/><line style="stroke:#181818;stroke-width:1;" x1="735.3342" x2="735.3342" y1="84.1328" y2="104.1328"/><polygon fill="#181818" points="731.3342,94.1328,735.3342,104.1328,739.3342,94.1328,735.3342,98.1328" style="stroke:#181818;stroke-width:1;"/><!--SRC=[xLJBRi903Bpp5PQu95B5fJSu87hZKb15Fs2Lc2Gbx4RhHOY_hpUR5tcLHzLJUw8RZprZZmr0HcWp0VwRmoUXXa2ZC1Y202FeiCW_9NlmrWGcnlmH154IIGuoYkDE5YQCGoPABdqRAS6Joi_XBllE8iiOG1aIx9K6gSwBTXIJCYS2GiEbO9EXh4F8g2p_1rD2y2v8PP4nbaUb-JKM4fJ4d775if71KNXN9jbVyZn52YJmS1RDNk2rVl8NLwXTh161gOQ9Z8ge8qf38BXqqTKcH6F6Ruq7fy3oAsk020BCJAsf8kq-OEXVuIsFJOMtrSjM9gwRt8bLWLnqaCtMr_5hkTKgqaZKHMoOZEvMGwUvIF2Mgk3GhMUrLZe3TSnIDDYZj3MUilHgH6APhLCJO9g955aDoY6z8-0vcxLj3TqESxPiMd_0t4PSoDfxkC7MI_j99td79Hg_CEXpYVlmY4i-2cHtvjLwjNLShsd9rf9TfMbZanofUyZM-46J3V6TQWo79ZsiySSnko5VwxADWAtR_wK_kMdsFJrhpTnT2JZ7IOhDXU5J5d7HOo93xY2BoXV5Cc-RhpgO_TxazlPSBPknvsRr7iSRZjep1sriqyMl7RF_S_J0ER9vwvlqp3qQwvz-OBVrixjTYGaLsu11yHrhhVvuhQla-Qzl]--></g></svg>