<svg xmlns="http://www.w3.org/2000/svg" xmlns:xlink="http://www.w3.org/1999/xlink" contentStyleType="text/css" height="1231px" preserveAspectRatio="none" style="width:1271px;height:1231px;background:#FFFFFF;" version="1.1" viewBox="0 0 1271 1231" width="1271px" zoomAndPan="magnify"><defs/><g><!--class User--><g id="elem_User"><rect codeLine="2" fill="#F1F1F1" height="146.9297" id="User" rx="2.5" ry="2.5" style="stroke:#181818;stroke-width:0.5;" width="187.9297" x="381.7" y="405.39"/><ellipse cx="456.2322" cy="421.39" fill="#ADD1B2" rx="11" ry="11" style="stroke:#181818;stroke-width:1.0;"/><path d="M459.8465,427.89 L452.1268,427.89 L452.1268,415.4969 L459.8465,415.4969 L459.8465,417.6551 L454.5755,417.6551 L454.5755,420.328 L459.3484,420.328 L459.3484,422.4862 L454.5755,422.4862 L454.5755,425.7318 L459.8465,425.7318 Z " fill="#000000"/><text fill="#000000" font-family="sans-serif" font-size="14" lengthAdjust="spacing" textLength="30.3652" x="476.7322" y="426.681">User</text><line style="stroke:#181818;stroke-width:0.5;" x1="382.7" x2="568.6297" y1="437.39" y2="437.39"/><ellipse cx="392.7" cy="451.1341" fill="#000000" rx="3" ry="3" style="stroke:#000000;stroke-width:1.0;"/><text fill="#000000" font-family="sans-serif" font-size="14" lengthAdjust="spacing" textLength="161.9297" x="401.7" y="454.9252">id: number &#171;generated&#187;</text><ellipse cx="392.7" cy="467.6224" fill="#000000" rx="3" ry="3" style="stroke:#000000;stroke-width:1.0;"/><text fill="#000000" font-family="sans-serif" font-size="14" lengthAdjust="spacing" textLength="85.1211" x="401.7" y="471.4134">email: string</text><ellipse cx="392.7" cy="484.1107" fill="#000000" rx="3" ry="3" style="stroke:#000000;stroke-width:1.0;"/><text fill="#000000" font-family="sans-serif" font-size="14" lengthAdjust="spacing" textLength="113.1689" x="401.7" y="487.9017">password: string</text><ellipse cx="392.7" cy="500.599" fill="#000000" rx="3" ry="3" style="stroke:#000000;stroke-width:1.0;"/><text fill="#000000" font-family="sans-serif" font-size="14" lengthAdjust="spacing" textLength="85.7158" x="401.7" y="504.39">name: string</text><text fill="#000000" font-family="sans-serif" font-size="14" lengthAdjust="spacing" textLength="115.459" x="401.7" y="520.8783">nickName: string</text><text fill="#000000" font-family="sans-serif" font-size="14" lengthAdjust="spacing" textLength="89.8311" x="401.7" y="537.3666">avatar: string</text><line style="stroke:#181818;stroke-width:0.5;" x1="382.7" x2="568.6297" y1="544.3197" y2="544.3197"/></g><!--class Task--><g id="elem_Task"><rect codeLine="11" fill="#F1F1F1" height="179.9063" id="Task" rx="2.5" ry="2.5" style="stroke:#181818;stroke-width:0.5;" width="305.4463" x="113.94" y="629.32"/><ellipse cx="246.4615" cy="645.32" fill="#ADD1B2" rx="11" ry="11" style="stroke:#181818;stroke-width:1.0;"/><path d="M250.0757,651.82 L242.356,651.82 L242.356,639.4269 L250.0757,639.4269 L250.0757,641.5851 L244.8047,641.5851 L244.8047,644.258 L249.5777,644.258 L249.5777,646.4162 L244.8047,646.4162 L244.8047,649.6618 L250.0757,649.6618 Z " fill="#000000"/><text fill="#000000" font-family="sans-serif" font-size="14" lengthAdjust="spacing" textLength="31.9033" x="266.9615" y="650.611">Task</text><line style="stroke:#181818;stroke-width:0.5;" x1="114.94" x2="418.3863" y1="661.32" y2="661.32"/><ellipse cx="124.94" cy="675.0641" fill="#000000" rx="3" ry="3" style="stroke:#000000;stroke-width:1.0;"/><text fill="#000000" font-family="sans-serif" font-size="14" lengthAdjust="spacing" textLength="161.9297" x="133.94" y="678.8552">id: number &#171;generated&#187;</text><ellipse cx="124.94" cy="691.5524" fill="#000000" rx="3" ry="3" style="stroke:#000000;stroke-width:1.0;"/><text fill="#000000" font-family="sans-serif" font-size="14" lengthAdjust="spacing" textLength="74.792" x="133.94" y="695.3434">title: string</text><ellipse cx="124.94" cy="708.0407" fill="#000000" rx="3" ry="3" style="stroke:#000000;stroke-width:1.0;"/><text fill="#000000" font-family="sans-serif" font-size="14" lengthAdjust="spacing" textLength="124.5029" x="133.94" y="711.8317">description: string</text><ellipse cx="124.94" cy="724.529" fill="#000000" rx="3" ry="3" style="stroke:#000000;stroke-width:1.0;"/><text fill="#000000" font-family="sans-serif" font-size="14" lengthAdjust="spacing" textLength="279.4463" x="133.94" y="728.32">accessLevel: int &#171;enum TaskAccessLevel&#187;</text><ellipse cx="124.94" cy="741.0173" fill="#000000" rx="3" ry="3" style="stroke:#000000;stroke-width:1.0;"/><text fill="#000000" font-family="sans-serif" font-size="14" lengthAdjust="spacing" textLength="203.2461" x="133.94" y="744.8083">status: int &#171;enum TaskStatus&#187;</text><ellipse cx="124.94" cy="757.5055" fill="#000000" rx="3" ry="3" style="stroke:#000000;stroke-width:1.0;"/><text fill="#000000" font-family="sans-serif" font-size="14" lengthAdjust="spacing" textLength="127.6611" x="133.94" y="761.2966">dueTime: datetime</text><line style="stroke:#181818;stroke-width:0.5;" x1="114.94" x2="418.3863" y1="768.2497" y2="768.2497"/><ellipse cx="124.94" cy="781.9938" fill="#000000" rx="3" ry="3" style="stroke:#000000;stroke-width:1.0;"/><text fill="#000000" font-family="sans-serif" font-size="14" lengthAdjust="spacing" textLength="208.5986" x="133.94" y="785.7848">ownerId: number &#171;FK(User.id)&#187;</text><ellipse cx="124.94" cy="798.4821" fill="#000000" rx="3" ry="3" style="stroke:#000000;stroke-width:1.0;"/><text fill="#000000" font-family="sans-serif" font-size="14" lengthAdjust="spacing" textLength="220.0557" x="133.94" y="802.2731">houseId: number &#171;FK(House.id)&#187;</text></g><!--class TaskAccessLevel--><g id="elem_TaskAccessLevel"><rect codeLine="22" fill="#F1F1F1" height="80.9766" id="TaskAccessLevel" rx="2.5" ry="2.5" style="stroke:#181818;stroke-width:0.5;" width="144.335" x="173.49" y="910.96"/><ellipse cx="188.49" cy="926.96" fill="#EB937F" rx="11" ry="11" style="stroke:#181818;stroke-width:1.0;"/><path d="M192.1043,933.46 L184.3845,933.46 L184.3845,921.0669 L192.1043,921.0669 L192.1043,923.2251 L186.8333,923.2251 L186.8333,925.898 L191.6062,925.898 L191.6062,928.0562 L186.8333,928.0562 L186.8333,931.3018 L192.1043,931.3018 Z " fill="#000000"/><text fill="#000000" font-family="sans-serif" font-size="14" lengthAdjust="spacing" textLength="112.335" x="202.49" y="932.251">TaskAccessLevel</text><line style="stroke:#181818;stroke-width:0.5;" x1="174.49" x2="316.825" y1="942.96" y2="942.96"/><text fill="#000000" font-family="sans-serif" font-size="14" lengthAdjust="spacing" textLength="53.4297" x="179.49" y="960.4952">ALL = 0</text><text fill="#000000" font-family="sans-serif" font-size="14" lengthAdjust="spacing" textLength="93.249" x="179.49" y="976.9834">ASSIGNEE = 1</text><line style="stroke:#181818;stroke-width:0.5;" x1="174.49" x2="316.825" y1="983.9366" y2="983.9366"/></g><!--class TaskStatus--><g id="elem_TaskStatus"><rect codeLine="27" fill="#F1F1F1" height="130.4414" id="TaskStatus" rx="2.5" ry="2.5" style="stroke:#181818;stroke-width:0.5;" width="131.3213" x="7" y="886.23"/><ellipse cx="33.6319" cy="902.23" fill="#EB937F" rx="11" ry="11" style="stroke:#181818;stroke-width:1.0;"/><path d="M37.2461,908.73 L29.5264,908.73 L29.5264,896.3369 L37.2461,896.3369 L37.2461,898.4951 L31.9751,898.4951 L31.9751,901.168 L36.7481,901.168 L36.7481,903.3262 L31.9751,903.3262 L31.9751,906.5718 L37.2461,906.5718 Z " fill="#000000"/><text fill="#000000" font-family="sans-serif" font-size="14" lengthAdjust="spacing" textLength="73.4727" x="50.2167" y="907.521">TaskStatus</text><line style="stroke:#181818;stroke-width:0.5;" x1="8" x2="137.3213" y1="918.23" y2="918.23"/><text fill="#000000" font-family="sans-serif" font-size="14" lengthAdjust="spacing" textLength="65.3857" x="13" y="935.7652">OPEN = 0</text><text fill="#000000" font-family="sans-serif" font-size="14" lengthAdjust="spacing" textLength="119.3213" x="13" y="952.2534">IN_PROGRESS = 1</text><text fill="#000000" font-family="sans-serif" font-size="14" lengthAdjust="spacing" textLength="68.1338" x="13" y="968.7417">DONE = 2</text><text fill="#000000" font-family="sans-serif" font-size="14" lengthAdjust="spacing" textLength="108.8076" x="13" y="985.23">CANCELLED = 3</text><text fill="#000000" font-family="sans-serif" font-size="14" lengthAdjust="spacing" textLength="93.8369" x="13" y="1001.7183">REJECTED = 4</text><line style="stroke:#181818;stroke-width:0.5;" x1="8" x2="137.3213" y1="1008.6714" y2="1008.6714"/></g><!--class TaskAssignment--><g id="elem_TaskAssignment"><rect codeLine="38" fill="#F1F1F1" height="113.9531" id="TaskAssignment" rx="2.5" ry="2.5" style="stroke:#181818;stroke-width:0.5;" width="403.7266" x="352.8" y="894.47"/><ellipse cx="494.3654" cy="910.47" fill="#ADD1B2" rx="11" ry="11" style="stroke:#181818;stroke-width:1.0;"/><path d="M497.9797,916.97 L490.26,916.97 L490.26,904.5769 L497.9797,904.5769 L497.9797,906.7351 L492.7087,906.7351 L492.7087,909.408 L497.4816,909.408 L497.4816,911.5662 L492.7087,911.5662 L492.7087,914.8118 L497.9797,914.8118 Z " fill="#000000"/><text fill="#000000" font-family="sans-serif" font-size="14" lengthAdjust="spacing" textLength="112.0957" x="514.8654" y="915.761">TaskAssignment</text><line style="stroke:#181818;stroke-width:0.5;" x1="353.8" x2="755.5266" y1="926.47" y2="926.47"/><ellipse cx="363.8" cy="940.2141" fill="#000000" rx="3" ry="3" style="stroke:#000000;stroke-width:1.0;"/><text fill="#000000" font-family="sans-serif" font-size="14" lengthAdjust="spacing" textLength="161.9297" x="372.8" y="944.0052">id: number &#171;generated&#187;</text><ellipse cx="363.8" cy="956.7024" fill="#000000" rx="3" ry="3" style="stroke:#000000;stroke-width:1.0;"/><text fill="#000000" font-family="sans-serif" font-size="14" lengthAdjust="spacing" textLength="377.7266" x="372.8" y="960.4934">assigneeStatus: number &#171;enum TaskAssignmentStatus&#187;</text><line style="stroke:#181818;stroke-width:0.5;" x1="353.8" x2="755.5266" y1="967.4466" y2="967.4466"/><ellipse cx="363.8" cy="981.1907" fill="#000000" rx="3" ry="3" style="stroke:#000000;stroke-width:1.0;"/><text fill="#000000" font-family="sans-serif" font-size="14" lengthAdjust="spacing" textLength="196.8203" x="372.8" y="984.9817">taskId: number &#171;FK(Task.id)&#187;</text><ellipse cx="363.8" cy="997.679" fill="#000000" rx="3" ry="3" style="stroke:#000000;stroke-width:1.0;"/><text fill="#000000" font-family="sans-serif" font-size="14" lengthAdjust="spacing" textLength="196.3486" x="372.8" y="1001.47">userId: number &#171;FK(User.id)&#187;</text></g><!--class TaskAssignmentStatus--><g id="elem_TaskAssignmentStatus"><rect codeLine="45" fill="#F1F1F1" height="130.4414" id="TaskAssignmentStatus" rx="2.5" ry="2.5" style="stroke:#181818;stroke-width:0.5;" width="185.665" x="461.83" y="1093.67"/><ellipse cx="476.83" cy="1109.67" fill="#EB937F" rx="11" ry="11" style="stroke:#181818;stroke-width:1.0;"/><path d="M480.4443,1116.17 L472.7245,1116.17 L472.7245,1103.7769 L480.4443,1103.7769 L480.4443,1105.9351 L475.1733,1105.9351 L475.1733,1108.608 L479.9462,1108.608 L479.9462,1110.7662 L475.1733,1110.7662 L475.1733,1114.0118 L480.4443,1114.0118 Z " fill="#000000"/><text fill="#000000" font-family="sans-serif" font-size="14" lengthAdjust="spacing" textLength="153.665" x="490.83" y="1114.961">TaskAssignmentStatus</text><line style="stroke:#181818;stroke-width:0.5;" x1="462.83" x2="646.495" y1="1125.67" y2="1125.67"/><text fill="#000000" font-family="sans-serif" font-size="14" lengthAdjust="spacing" textLength="89.4893" x="467.83" y="1143.2052">PENDING = 0</text><text fill="#000000" font-family="sans-serif" font-size="14" lengthAdjust="spacing" textLength="100.126" x="467.83" y="1159.6934">ACCEPTED = 1</text><text fill="#000000" font-family="sans-serif" font-size="14" lengthAdjust="spacing" textLength="93.8369" x="467.83" y="1176.1817">REJECTED = 2</text><text fill="#000000" font-family="sans-serif" font-size="14" lengthAdjust="spacing" textLength="108.8076" x="467.83" y="1192.67">CANCELLED = 3</text><text fill="#000000" font-family="sans-serif" font-size="14" lengthAdjust="spacing" textLength="68.1338" x="467.83" y="1209.1583">DONE = 4</text><line style="stroke:#181818;stroke-width:0.5;" x1="462.83" x2="646.495" y1="1216.1114" y2="1216.1114"/></g><!--class House--><g id="elem_House"><rect codeLine="55" fill="#F1F1F1" height="97.4648" id="House" rx="2.5" ry="2.5" style="stroke:#181818;stroke-width:0.5;" width="187.9297" x="695.7" y="23.49"/><ellipse cx="764.1585" cy="39.49" fill="#ADD1B2" rx="11" ry="11" style="stroke:#181818;stroke-width:1.0;"/><path d="M767.7728,45.99 L760.053,45.99 L760.053,33.5969 L767.7728,33.5969 L767.7728,35.7551 L762.5018,35.7551 L762.5018,38.428 L767.2747,38.428 L767.2747,40.5862 L762.5018,40.5862 L762.5018,43.8318 L767.7728,43.8318 Z " fill="#000000"/><text fill="#000000" font-family="sans-serif" font-size="14" lengthAdjust="spacing" textLength="42.5127" x="784.6585" y="44.781">House</text><line style="stroke:#181818;stroke-width:0.5;" x1="696.7" x2="882.6297" y1="55.49" y2="55.49"/><ellipse cx="706.7" cy="69.2341" fill="#000000" rx="3" ry="3" style="stroke:#000000;stroke-width:1.0;"/><text fill="#000000" font-family="sans-serif" font-size="14" lengthAdjust="spacing" textLength="161.9297" x="715.7" y="73.0252">id: number &#171;generated&#187;</text><ellipse cx="706.7" cy="85.7224" fill="#000000" rx="3" ry="3" style="stroke:#000000;stroke-width:1.0;"/><text fill="#000000" font-family="sans-serif" font-size="14" lengthAdjust="spacing" textLength="85.7158" x="715.7" y="89.5134">name: string</text><text fill="#000000" font-family="sans-serif" font-size="14" lengthAdjust="spacing" textLength="124.5029" x="715.7" y="106.0017">description: string</text><line style="stroke:#181818;stroke-width:0.5;" x1="696.7" x2="882.6297" y1="112.9548" y2="112.9548"/></g><!--class HouseUser--><g id="elem_HouseUser"><rect codeLine="61" fill="#F1F1F1" height="113.9531" id="HouseUser" rx="2.5" ry="2.5" style="stroke:#181818;stroke-width:0.5;" width="305.0361" x="763.14" y="662.3"/><ellipse cx="874.9691" cy="678.3" fill="#ADD1B2" rx="11" ry="11" style="stroke:#181818;stroke-width:1.0;"/><path d="M878.5834,684.8 L870.8636,684.8 L870.8636,672.4069 L878.5834,672.4069 L878.5834,674.5651 L873.3124,674.5651 L873.3124,677.238 L878.0853,677.238 L878.0853,679.3962 L873.3124,679.3962 L873.3124,682.6418 L878.5834,682.6418 Z " fill="#000000"/><text fill="#000000" font-family="sans-serif" font-size="14" lengthAdjust="spacing" textLength="72.8779" x="895.4691" y="683.591">HouseUser</text><line style="stroke:#181818;stroke-width:0.5;" x1="764.14" x2="1067.1761" y1="694.3" y2="694.3"/><ellipse cx="774.14" cy="708.0441" fill="#000000" rx="3" ry="3" style="stroke:#000000;stroke-width:1.0;"/><text fill="#000000" font-family="sans-serif" font-size="14" lengthAdjust="spacing" textLength="161.9297" x="783.14" y="711.8352">id: number &#171;generated&#187;</text><ellipse cx="774.14" cy="724.5324" fill="#000000" rx="3" ry="3" style="stroke:#000000;stroke-width:1.0;"/><text fill="#000000" font-family="sans-serif" font-size="14" lengthAdjust="spacing" textLength="279.0361" x="783.14" y="728.3234">status: number &#171;enum HouseUserStatus&#187;</text><line style="stroke:#181818;stroke-width:0.5;" x1="764.14" x2="1067.1761" y1="735.2766" y2="735.2766"/><ellipse cx="774.14" cy="749.0207" fill="#000000" rx="3" ry="3" style="stroke:#000000;stroke-width:1.0;"/><text fill="#000000" font-family="sans-serif" font-size="14" lengthAdjust="spacing" textLength="196.3486" x="783.14" y="752.8117">userId: number &#171;FK(User.id)&#187;</text><ellipse cx="774.14" cy="765.509" fill="#000000" rx="3" ry="3" style="stroke:#000000;stroke-width:1.0;"/><text fill="#000000" font-family="sans-serif" font-size="14" lengthAdjust="spacing" textLength="220.0557" x="783.14" y="769.3">houseId: number &#171;FK(House.id)&#187;</text></g><!--class HouseUserStatus--><g id="elem_HouseUserStatus"><rect codeLine="68" fill="#F1F1F1" height="80.9766" id="HouseUserStatus" rx="2.5" ry="2.5" style="stroke:#181818;stroke-width:0.5;" width="146.4473" x="842.44" y="910.96"/><ellipse cx="857.44" cy="926.96" fill="#EB937F" rx="11" ry="11" style="stroke:#181818;stroke-width:1.0;"/><path d="M861.0543,933.46 L853.3345,933.46 L853.3345,921.0669 L861.0543,921.0669 L861.0543,923.2251 L855.7833,923.2251 L855.7833,925.898 L860.5562,925.898 L860.5562,928.0562 L855.7833,928.0562 L855.7833,931.3018 L861.0543,931.3018 Z " fill="#000000"/><text fill="#000000" font-family="sans-serif" font-size="14" lengthAdjust="spacing" textLength="114.4473" x="871.44" y="932.251">HouseUserStatus</text><line style="stroke:#181818;stroke-width:0.5;" x1="843.44" x2="987.8873" y1="942.96" y2="942.96"/><text fill="#000000" font-family="sans-serif" font-size="14" lengthAdjust="spacing" textLength="76.5215" x="848.44" y="960.4952">JOINED = 0</text><text fill="#000000" font-family="sans-serif" font-size="14" lengthAdjust="spacing" textLength="60.252" x="848.44" y="976.9834">LEFT = 1</text><line style="stroke:#181818;stroke-width:0.5;" x1="843.44" x2="987.8873" y1="983.9366" y2="983.9366"/></g><!--class Rule--><g id="elem_Rule"><rect codeLine="75" fill="#F1F1F1" height="113.9531" id="Rule" rx="2.5" ry="2.5" style="stroke:#181818;stroke-width:0.5;" width="246.0557" x="666.63" y="214.44"/><ellipse cx="770.714" cy="230.44" fill="#ADD1B2" rx="11" ry="11" style="stroke:#181818;stroke-width:1.0;"/><path d="M774.3282,236.94 L766.6085,236.94 L766.6085,224.5469 L774.3282,224.5469 L774.3282,226.7051 L769.0572,226.7051 L769.0572,229.378 L773.8302,229.378 L773.8302,231.5362 L769.0572,231.5362 L769.0572,234.7818 L774.3282,234.7818 Z " fill="#000000"/><text fill="#000000" font-family="sans-serif" font-size="14" lengthAdjust="spacing" textLength="29.3877" x="791.214" y="235.731">Rule</text><line style="stroke:#181818;stroke-width:0.5;" x1="667.63" x2="911.6857" y1="246.44" y2="246.44"/><ellipse cx="677.63" cy="260.1841" fill="#000000" rx="3" ry="3" style="stroke:#000000;stroke-width:1.0;"/><text fill="#000000" font-family="sans-serif" font-size="14" lengthAdjust="spacing" textLength="161.9297" x="686.63" y="263.9752">id: number &#171;generated&#187;</text><ellipse cx="677.63" cy="276.6724" fill="#000000" rx="3" ry="3" style="stroke:#000000;stroke-width:1.0;"/><text fill="#000000" font-family="sans-serif" font-size="14" lengthAdjust="spacing" textLength="85.7158" x="686.63" y="280.4634">name: string</text><text fill="#000000" font-family="sans-serif" font-size="14" lengthAdjust="spacing" textLength="124.5029" x="686.63" y="296.9517">description: string</text><line style="stroke:#181818;stroke-width:0.5;" x1="667.63" x2="911.6857" y1="303.9048" y2="303.9048"/><ellipse cx="677.63" cy="317.649" fill="#000000" rx="3" ry="3" style="stroke:#000000;stroke-width:1.0;"/><text fill="#000000" font-family="sans-serif" font-size="14" lengthAdjust="spacing" textLength="220.0557" x="686.63" y="321.44">houseId: number &#171;FK(House.id)&#187;</text></g><!--class JoinRequest--><g id="elem_JoinRequest"><rect codeLine="82" fill="#F1F1F1" height="113.9531" id="JoinRequest" rx="2.5" ry="2.5" style="stroke:#181818;stroke-width:0.5;" width="312.1729" x="319.57" y="214.44"/><ellipse cx="431.3991" cy="230.44" fill="#ADD1B2" rx="11" ry="11" style="stroke:#181818;stroke-width:1.0;"/><path d="M435.0134,236.94 L427.2936,236.94 L427.2936,224.5469 L435.0134,224.5469 L435.0134,226.7051 L429.7424,226.7051 L429.7424,229.378 L434.5153,229.378 L434.5153,231.5362 L429.7424,231.5362 L429.7424,234.7818 L435.0134,234.7818 Z " fill="#000000"/><text fill="#000000" font-family="sans-serif" font-size="14" lengthAdjust="spacing" textLength="80.0146" x="451.8991" y="235.731">JoinRequest</text><line style="stroke:#181818;stroke-width:0.5;" x1="320.57" x2="630.7429" y1="246.44" y2="246.44"/><ellipse cx="330.57" cy="260.1841" fill="#000000" rx="3" ry="3" style="stroke:#000000;stroke-width:1.0;"/><text fill="#000000" font-family="sans-serif" font-size="14" lengthAdjust="spacing" textLength="161.9297" x="339.57" y="263.9752">id: number &#171;generated&#187;</text><ellipse cx="330.57" cy="276.6724" fill="#000000" rx="3" ry="3" style="stroke:#000000;stroke-width:1.0;"/><text fill="#000000" font-family="sans-serif" font-size="14" lengthAdjust="spacing" textLength="286.1729" x="339.57" y="280.4634">status: number &#171;enum JoinRequestStatus&#187;</text><line style="stroke:#181818;stroke-width:0.5;" x1="320.57" x2="630.7429" y1="287.4166" y2="287.4166"/><ellipse cx="330.57" cy="301.1607" fill="#000000" rx="3" ry="3" style="stroke:#000000;stroke-width:1.0;"/><text fill="#000000" font-family="sans-serif" font-size="14" lengthAdjust="spacing" textLength="220.0557" x="339.57" y="304.9517">houseId: number &#171;FK(House.id)&#187;</text><ellipse cx="330.57" cy="317.649" fill="#000000" rx="3" ry="3" style="stroke:#000000;stroke-width:1.0;"/><text fill="#000000" font-family="sans-serif" font-size="14" lengthAdjust="spacing" textLength="196.3486" x="339.57" y="321.44">userId: number &#171;FK(User.id)&#187;</text></g><!--class JoinRequestStatus--><g id="elem_JoinRequestStatus"><rect codeLine="89" fill="#F1F1F1" height="113.9531" id="JoinRequestStatus" rx="2.5" ry="2.5" style="stroke:#181818;stroke-width:0.5;" width="153.584" x="604.87" y="421.88"/><ellipse cx="619.87" cy="437.88" fill="#EB937F" rx="11" ry="11" style="stroke:#181818;stroke-width:1.0;"/><path d="M623.4843,444.38 L615.7645,444.38 L615.7645,431.9869 L623.4843,431.9869 L623.4843,434.1451 L618.2133,434.1451 L618.2133,436.818 L622.9862,436.818 L622.9862,438.9762 L618.2133,438.9762 L618.2133,442.2218 L623.4843,442.2218 Z " fill="#000000"/><text fill="#000000" font-family="sans-serif" font-size="14" lengthAdjust="spacing" textLength="121.584" x="633.87" y="443.171">JoinRequestStatus</text><line style="stroke:#181818;stroke-width:0.5;" x1="605.87" x2="757.454" y1="453.88" y2="453.88"/><text fill="#000000" font-family="sans-serif" font-size="14" lengthAdjust="spacing" textLength="89.4893" x="610.87" y="471.4152">PENDING = 0</text><text fill="#000000" font-family="sans-serif" font-size="14" lengthAdjust="spacing" textLength="100.126" x="610.87" y="487.9034">ACCEPTED = 1</text><text fill="#000000" font-family="sans-serif" font-size="14" lengthAdjust="spacing" textLength="93.8369" x="610.87" y="504.3917">REJECTED = 2</text><text fill="#000000" font-family="sans-serif" font-size="14" lengthAdjust="spacing" textLength="108.8076" x="610.87" y="520.88">CANCELLED = 3</text><line style="stroke:#181818;stroke-width:0.5;" x1="605.87" x2="757.454" y1="527.8331" y2="527.8331"/></g><!--class Invitation--><g id="elem_Invitation"><rect codeLine="98" fill="#F1F1F1" height="113.9531" id="Invitation" rx="2.5" ry="2.5" style="stroke:#181818;stroke-width:0.5;" width="246.0557" x="1018.63" y="214.44"/><ellipse cx="1105.631" cy="230.44" fill="#ADD1B2" rx="11" ry="11" style="stroke:#181818;stroke-width:1.0;"/><path d="M1109.2452,236.94 L1101.5255,236.94 L1101.5255,224.5469 L1109.2452,224.5469 L1109.2452,226.7051 L1103.9742,226.7051 L1103.9742,229.378 L1108.7472,229.378 L1108.7472,231.5362 L1103.9742,231.5362 L1103.9742,234.7818 L1109.2452,234.7818 Z " fill="#000000"/><text fill="#000000" font-family="sans-serif" font-size="14" lengthAdjust="spacing" textLength="63.5537" x="1126.131" y="235.731">Invitation</text><line style="stroke:#181818;stroke-width:0.5;" x1="1019.63" x2="1263.6857" y1="246.44" y2="246.44"/><ellipse cx="1029.63" cy="260.1841" fill="#000000" rx="3" ry="3" style="stroke:#000000;stroke-width:1.0;"/><text fill="#000000" font-family="sans-serif" font-size="14" lengthAdjust="spacing" textLength="161.9297" x="1038.63" y="263.9752">id: number &#171;generated&#187;</text><ellipse cx="1029.63" cy="276.6724" fill="#000000" rx="3" ry="3" style="stroke:#000000;stroke-width:1.0;"/><text fill="#000000" font-family="sans-serif" font-size="14" lengthAdjust="spacing" textLength="146.8906" x="1038.63" y="280.4634">invitationCode: string</text><ellipse cx="1029.63" cy="293.1607" fill="#000000" rx="3" ry="3" style="stroke:#000000;stroke-width:1.0;"/><text fill="#000000" font-family="sans-serif" font-size="14" lengthAdjust="spacing" textLength="133.3965" x="1038.63" y="296.9517">expiresAt: datetime</text><line style="stroke:#181818;stroke-width:0.5;" x1="1019.63" x2="1263.6857" y1="303.9048" y2="303.9048"/><ellipse cx="1029.63" cy="317.649" fill="#000000" rx="3" ry="3" style="stroke:#000000;stroke-width:1.0;"/><text fill="#000000" font-family="sans-serif" font-size="14" lengthAdjust="spacing" textLength="220.0557" x="1038.63" y="321.44">houseId: number &#171;FK(House.id)&#187;</text></g><!--class DeviceToken--><g id="elem_DeviceToken"><rect codeLine="105" fill="#F1F1F1" height="130.4414" id="DeviceToken" rx="2.5" ry="2.5" style="stroke:#181818;stroke-width:0.5;" width="222.3486" x="918.49" y="7"/><ellipse cx="982.0779" cy="23" fill="#ADD1B2" rx="11" ry="11" style="stroke:#181818;stroke-width:1.0;"/><path d="M985.6921,29.5 L977.9724,29.5 L977.9724,17.1069 L985.6921,17.1069 L985.6921,19.2651 L980.4212,19.2651 L980.4212,21.938 L985.1941,21.938 L985.1941,24.0962 L980.4212,24.0962 L980.4212,27.3418 L985.6921,27.3418 Z " fill="#000000"/><text fill="#000000" font-family="sans-serif" font-size="14" lengthAdjust="spacing" textLength="86.6729" x="1002.5779" y="28.291">DeviceToken</text><line style="stroke:#181818;stroke-width:0.5;" x1="919.49" x2="1139.8386" y1="39" y2="39"/><ellipse cx="929.49" cy="52.7441" fill="#000000" rx="3" ry="3" style="stroke:#000000;stroke-width:1.0;"/><text fill="#000000" font-family="sans-serif" font-size="14" lengthAdjust="spacing" textLength="161.9297" x="938.49" y="56.5352">id: number &#171;generated&#187;</text><ellipse cx="929.49" cy="69.2324" fill="#000000" rx="3" ry="3" style="stroke:#000000;stroke-width:1.0;"/><text fill="#000000" font-family="sans-serif" font-size="14" lengthAdjust="spacing" textLength="86.9326" x="938.49" y="73.0234">token: string</text><ellipse cx="929.49" cy="85.7207" fill="#000000" rx="3" ry="3" style="stroke:#000000;stroke-width:1.0;"/><text fill="#000000" font-family="sans-serif" font-size="14" lengthAdjust="spacing" textLength="91.3008" x="938.49" y="89.5117">device: string</text><ellipse cx="929.49" cy="102.209" fill="#000000" rx="3" ry="3" style="stroke:#000000;stroke-width:1.0;"/><text fill="#000000" font-family="sans-serif" font-size="14" lengthAdjust="spacing" textLength="115.4795" x="938.49" y="106">isActive: boolean</text><line style="stroke:#181818;stroke-width:0.5;" x1="919.49" x2="1139.8386" y1="112.9531" y2="112.9531"/><ellipse cx="929.49" cy="126.6973" fill="#000000" rx="3" ry="3" style="stroke:#000000;stroke-width:1.0;"/><text fill="#000000" font-family="sans-serif" font-size="14" lengthAdjust="spacing" textLength="196.3486" x="938.49" y="130.4883">userId: number &#171;FK(User.id)&#187;</text></g><!--link Task to TaskAccessLevel--><g id="link_Task_TaskAccessLevel"><path codeLine="35" d="M258.51,809.59 C255.33,844.47 251.84,882.68 249.31,910.49 " fill="none" id="Task-TaskAccessLevel" style="stroke:#181818;stroke-width:1.0;"/><text fill="#000000" font-family="sans-serif" font-size="13" lengthAdjust="spacing" textLength="28.5645" x="256.53" y="852.7984">uses</text></g><!--link Task to TaskStatus--><g id="link_Task_TaskStatus"><path codeLine="36" d="M191.38,809.59 C169.97,834.99 147.07,862.16 127.16,885.79 " fill="none" id="Task-TaskStatus" style="stroke:#181818;stroke-width:1.0;"/><text fill="#000000" font-family="sans-serif" font-size="13" lengthAdjust="spacing" textLength="28.5645" x="164.84" y="852.7984">uses</text></g><!--link TaskAssignment to TaskAssignmentStatus--><g id="link_TaskAssignment_TaskAssignmentStatus"><path codeLine="53" d="M554.66,1008.86 C554.66,1034.99 554.66,1066.18 554.66,1093.26 " fill="none" id="TaskAssignment-TaskAssignmentStatus" style="stroke:#181818;stroke-width:1.0;"/><text fill="#000000" font-family="sans-serif" font-size="13" lengthAdjust="spacing" textLength="28.5645" x="555.66" y="1060.2384">uses</text></g><!--link HouseUser to HouseUserStatus--><g id="link_HouseUser_HouseUserStatus"><path codeLine="73" d="M915.66,776.58 C915.66,818.11 915.66,873.59 915.66,910.59 " fill="none" id="HouseUser-HouseUserStatus" style="stroke:#181818;stroke-width:1.0;"/><text fill="#000000" font-family="sans-serif" font-size="13" lengthAdjust="spacing" textLength="28.5645" x="916.66" y="852.7984">uses</text></g><!--link JoinRequest to JoinRequestStatus--><g id="link_JoinRequest_JoinRequestStatus"><path codeLine="96" d="M532.22,328.82 C561.17,357.69 596.3,392.73 625.22,421.57 " fill="none" id="JoinRequest-JoinRequestStatus" style="stroke:#181818;stroke-width:1.0;"/><text fill="#000000" font-family="sans-serif" font-size="13" lengthAdjust="spacing" textLength="28.5645" x="579.66" y="371.9584">uses</text></g><!--link User to Task--><g id="link_User_Task"><path codeLine="113" d="M406.5472,558.6964 C385.4172,582.8064 378.8075,590.3563 356.7275,615.5363 " fill="none" id="User-Task" style="stroke:#181818;stroke-width:1.0;"/><line style="stroke:#181818;stroke-width:1.0;" x1="406.1754" x2="412.1918" y1="553.0518" y2="558.3246"/><line style="stroke:#181818;stroke-width:1.0;" x1="404.1981" x2="410.2145" y1="555.308" y2="560.5808"/><line style="stroke:#181818;stroke-width:1.0;" x1="406.5472" x2="411.82" y1="558.6964" y2="552.68"/><line style="stroke:#181818;stroke-width:1.0;" x1="350.1345" x2="349.3712" y1="623.055" y2="633.0258"/><line style="stroke:#181818;stroke-width:1.0;" x1="350.1345" x2="340.3488" y1="623.055" y2="625.1142"/><line style="stroke:#181818;stroke-width:1.0;" x1="350.1345" x2="344.86" y1="623.055" y2="629.07"/><ellipse cx="354.0903" cy="618.5438" fill="none" rx="4" ry="4" style="stroke:#181818;stroke-width:1.0;"/><text fill="#000000" font-family="sans-serif" font-size="13" lengthAdjust="spacing" textLength="32.6968" x="384.67" y="595.8884">owns</text></g><!--link User to TaskAssignment--><g id="link_User_TaskAssignment"><path codeLine="114" d="M489.1946,560.4996 C505.0046,654.6696 527.9082,791.1187 542.2382,876.4287 " fill="none" id="User-TaskAssignment" style="stroke:#181818;stroke-width:1.0;"/><line style="stroke:#181818;stroke-width:1.0;" x1="484.5875" x2="492.4771" y1="557.2171" y2="555.8925"/><line style="stroke:#181818;stroke-width:1.0;" x1="485.0842" x2="492.9738" y1="560.1757" y2="558.8511"/><line style="stroke:#181818;stroke-width:1.0;" x1="489.1946" x2="487.87" y1="560.4996" y2="552.61"/><line style="stroke:#181818;stroke-width:1.0;" x1="543.8948" x2="551.1371" y1="886.2905" y2="893.1861"/><line style="stroke:#181818;stroke-width:1.0;" x1="543.8948" x2="539.3029" y1="886.2905" y2="895.1739"/><line style="stroke:#181818;stroke-width:1.0;" x1="543.8948" x2="545.22" y1="886.2905" y2="894.18"/><ellipse cx="542.9008" cy="880.3734" fill="none" rx="4" ry="4" style="stroke:#181818;stroke-width:1.0;"/><text fill="#000000" font-family="sans-serif" font-size="13" lengthAdjust="spacing" textLength="54.8501" x="531.59" y="724.3384">assignee</text></g><!--link Task to TaskAssignment--><g id="link_Task_TaskAssignment"><path codeLine="115" d="M357.3966,815.114 C374.3666,831.314 386.73,842.04 404.66,856.23 C421.3,869.39 424.772,872.5095 443.012,884.3495 " fill="none" id="Task-TaskAssignment" style="stroke:#181818;stroke-width:1.0;"/><line style="stroke:#181818;stroke-width:1.0;" x1="351.7413" x2="357.2653" y1="815.2453" y2="809.4587"/><line style="stroke:#181818;stroke-width:1.0;" x1="353.9113" x2="359.4353" y1="817.3168" y2="811.5302"/><line style="stroke:#181818;stroke-width:1.0;" x1="357.3966" x2="351.61" y1="815.114" y2="809.59"/><line style="stroke:#181818;stroke-width:1.0;" x1="451.3998" x2="461.3768" y1="889.7942" y2="889.1173"/><line style="stroke:#181818;stroke-width:1.0;" x1="451.3998" x2="454.8432" y1="889.7942" y2="899.1827"/><line style="stroke:#181818;stroke-width:1.0;" x1="451.3998" x2="458.11" y1="889.7942" y2="894.15"/><ellipse cx="446.3671" cy="886.5274" fill="none" rx="4" ry="4" style="stroke:#181818;stroke-width:1.0;"/><text fill="#000000" font-family="sans-serif" font-size="13" lengthAdjust="spacing" textLength="92.041" x="405.66" y="852.7984">assignedTasks</text></g><!--link User to HouseUser--><g id="link_User_HouseUser"><path codeLine="116" d="M576.7796,545.9997 C582.7296,549.6097 581.84,548.98 587.66,552.32 C655.59,591.34 717.6211,623.1801 780.6211,654.0001 " fill="none" id="User-HouseUser" style="stroke:#181818;stroke-width:1.0;"/><line style="stroke:#181818;stroke-width:1.0;" x1="571.2849" x2="575.4346" y1="547.3446" y2="540.5051"/><line style="stroke:#181818;stroke-width:1.0;" x1="573.8498" x2="577.9995" y1="548.9008" y2="542.0612"/><line style="stroke:#181818;stroke-width:1.0;" x1="576.7796" x2="569.94" y1="545.9997" y2="541.85"/><line style="stroke:#181818;stroke-width:1.0;" x1="789.6038" x2="799.4266" y1="658.3945" y2="656.5204"/><line style="stroke:#181818;stroke-width:1.0;" x1="789.6038" x2="794.1534" y1="658.3945" y2="667.2996"/><line style="stroke:#181818;stroke-width:1.0;" x1="789.6038" x2="796.79" y1="658.3945" y2="661.91"/><ellipse cx="784.2142" cy="655.7578" fill="none" rx="4" ry="4" style="stroke:#181818;stroke-width:1.0;"/><text fill="#000000" font-family="sans-serif" font-size="13" lengthAdjust="spacing" textLength="33.8838" x="668.16" y="595.8884">users</text></g><!--link House to HouseUser--><g id="link_House_HouseUser"><path codeLine="117" d="M863.4403,126.5707 C891.7603,150.8807 915.49,177.78 930.66,214.44 C993.39,366.05 960.6231,548.4144 936.2131,644.4744 " fill="none" id="House-HouseUser" style="stroke:#181818;stroke-width:1.0;"/><line style="stroke:#181818;stroke-width:1.0;" x1="857.7998" x2="863.0105" y1="127.0005" y2="120.9302"/><line style="stroke:#181818;stroke-width:1.0;" x1="860.0761" x2="865.2869" y1="128.9545" y2="122.8843"/><line style="stroke:#181818;stroke-width:1.0;" x1="863.4403" x2="857.37" y1="126.5707" y2="121.36"/><line style="stroke:#181818;stroke-width:1.0;" x1="933.7503" x2="937.5952" y1="654.1664" y2="663.3977"/><line style="stroke:#181818;stroke-width:1.0;" x1="933.7503" x2="925.9648" y1="654.1664" y2="660.4423"/><line style="stroke:#181818;stroke-width:1.0;" x1="933.7503" x2="931.78" y1="654.1664" y2="661.92"/><ellipse cx="935.228" cy="648.3512" fill="none" rx="4" ry="4" style="stroke:#181818;stroke-width:1.0;"/><text fill="#000000" font-family="sans-serif" font-size="13" lengthAdjust="spacing" textLength="44.6177" x="965.04" y="371.9584">houses</text></g><!--link House to Rule--><g id="link_House_Rule"><path codeLine="119" d="M789.66,129.21 C789.66,157.25 789.66,166.79 789.66,196.15 " fill="none" id="House-Rule" style="stroke:#181818;stroke-width:1.0;"/><line style="stroke:#181818;stroke-width:1.0;" x1="785.66" x2="793.66" y1="125.21" y2="125.21"/><line style="stroke:#181818;stroke-width:1.0;" x1="785.66" x2="793.66" y1="128.21" y2="128.21"/><line style="stroke:#181818;stroke-width:1.0;" x1="789.66" x2="789.66" y1="129.21" y2="121.21"/><line style="stroke:#181818;stroke-width:1.0;" x1="789.66" x2="795.66" y1="206.15" y2="214.15"/><line style="stroke:#181818;stroke-width:1.0;" x1="789.66" x2="783.66" y1="206.15" y2="214.15"/><line style="stroke:#181818;stroke-width:1.0;" x1="789.66" x2="789.66" y1="206.15" y2="214.15"/><ellipse cx="789.66" cy="200.15" fill="none" rx="4" ry="4" style="stroke:#181818;stroke-width:1.0;"/><text fill="#000000" font-family="sans-serif" font-size="13" lengthAdjust="spacing" textLength="21.874" x="790.66" y="181.0084">has</text></g><!--link House to Task--><g id="link_House_Task"><path codeLine="120" d="M687.4703,88.8238 C560.0503,110.2038 351.01,153.32 301.66,214.44 C206.92,331.78 220.2884,501.2043 241.4884,611.3643 " fill="none" id="House-Task" style="stroke:#181818;stroke-width:1.0;"/><line style="stroke:#181818;stroke-width:1.0;" x1="690.7532" x2="692.0771" y1="84.2171" y2="92.1068"/><line style="stroke:#181818;stroke-width:1.0;" x1="687.7946" x2="689.1184" y1="84.7135" y2="92.6032"/><line style="stroke:#181818;stroke-width:1.0;" x1="687.4703" x2="695.36" y1="88.8238" y2="87.5"/><line style="stroke:#181818;stroke-width:1.0;" x1="243.3782" x2="250.7819" y1="621.1842" y2="627.9061"/><line style="stroke:#181818;stroke-width:1.0;" x1="243.3782" x2="238.9981" y1="621.1842" y2="630.1739"/><line style="stroke:#181818;stroke-width:1.0;" x1="243.3782" x2="244.89" y1="621.1842" y2="629.04"/><ellipse cx="242.2443" cy="615.2923" fill="none" rx="4" ry="4" style="stroke:#181818;stroke-width:1.0;"/><text fill="#000000" font-family="sans-serif" font-size="13" lengthAdjust="spacing" textLength="21.874" x="239.14" y="371.9584">has</text></g><!--link House to JoinRequest--><g id="link_House_JoinRequest"><path codeLine="121" d="M706.4745,125.4635 C661.9045,153.4435 627.4736,175.0775 580.7836,204.3975 " fill="none" id="House-JoinRequest" style="stroke:#181818;stroke-width:1.0;"/><line style="stroke:#181818;stroke-width:1.0;" x1="707.7355" x2="711.989" y1="119.949" y2="126.7245"/><line style="stroke:#181818;stroke-width:1.0;" x1="705.1947" x2="709.4482" y1="121.5441" y2="128.3196"/><line style="stroke:#181818;stroke-width:1.0;" x1="706.4745" x2="713.25" y1="125.4635" y2="121.21"/><line style="stroke:#181818;stroke-width:1.0;" x1="572.3149" x2="568.7308" y1="209.7155" y2="219.0512"/><line style="stroke:#181818;stroke-width:1.0;" x1="572.3149" x2="562.3492" y1="209.7155" y2="208.8888"/><line style="stroke:#181818;stroke-width:1.0;" x1="572.3149" x2="565.54" y1="209.7155" y2="213.97"/><ellipse cx="577.3961" cy="206.5247" fill="none" rx="4" ry="4" style="stroke:#181818;stroke-width:1.0;"/><text fill="#000000" font-family="sans-serif" font-size="13" lengthAdjust="spacing" textLength="21.874" x="633.66" y="181.0084">has</text></g><!--link JoinRequest to User--><g id="link_JoinRequest_User"><path codeLine="122" d="M475.66,336.82 C475.66,360.34 475.66,371.96 475.66,396.99 " fill="none" id="JoinRequest-User" style="stroke:#181818;stroke-width:1.0;"/><line style="stroke:#181818;stroke-width:1.0;" x1="471.66" x2="479.66" y1="332.82" y2="332.82"/><line style="stroke:#181818;stroke-width:1.0;" x1="471.66" x2="479.66" y1="335.82" y2="335.82"/><line style="stroke:#181818;stroke-width:1.0;" x1="475.66" x2="475.66" y1="336.82" y2="328.82"/><line style="stroke:#181818;stroke-width:1.0;" x1="479.66" x2="471.66" y1="400.99" y2="400.99"/><line style="stroke:#181818;stroke-width:1.0;" x1="479.66" x2="471.66" y1="397.99" y2="397.99"/><line style="stroke:#181818;stroke-width:1.0;" x1="475.66" x2="475.66" y1="396.99" y2="404.99"/><text fill="#000000" font-family="sans-serif" font-size="13" lengthAdjust="spacing" textLength="49.9688" x="476.66" y="371.9584">belongs</text></g><!--link House to Invitation--><g id="link_House_Invitation"><path codeLine="123" d="M875.3955,125.1697 C886.0855,130.9197 890,132.66 900.66,137.44 C939.52,154.86 953.5,148.53 991.66,167.44 C1017.98,180.48 1030.2251,187.3302 1053.9251,203.8902 " fill="none" id="House-Invitation" style="stroke:#181818;stroke-width:1.0;"/><line style="stroke:#181818;stroke-width:1.0;" x1="869.9779" x2="873.7676" y1="126.7976" y2="119.7521"/><line style="stroke:#181818;stroke-width:1.0;" x1="872.62" x2="876.4096" y1="128.2187" y2="121.1732"/><line style="stroke:#181818;stroke-width:1.0;" x1="875.3955" x2="868.35" y1="125.1697" y2="121.38"/><line style="stroke:#181818;stroke-width:1.0;" x1="1062.1222" x2="1072.1166" y1="209.6179" y2="209.2817"/><line style="stroke:#181818;stroke-width:1.0;" x1="1062.1222" x2="1065.2434" y1="209.6179" y2="219.1183"/><line style="stroke:#181818;stroke-width:1.0;" x1="1062.1222" x2="1068.68" y1="209.6179" y2="214.2"/><ellipse cx="1057.2039" cy="206.1813" fill="none" rx="4" ry="4" style="stroke:#181818;stroke-width:1.0;"/><text fill="#000000" font-family="sans-serif" font-size="13" lengthAdjust="spacing" textLength="21.874" x="1023.17" y="181.0084">has</text></g><!--SRC=[hLPTRvim57tFh_3ZLYdJkkq9TPKGeHaP8b6WpvCBLwcLn6JOf9kQ_lTTsmICYKIcxGtVBn-VSwyDSCdaR_8ee2Al4q9kME4HNk-VS7rtjm4E5PLGtDyh7-mfstb4o8hnZJ8Sg10lPLNODaxtOAqvoxT9tqIFLDAgDRnD9c1GP5Hinr6KBxYCx827x-_K0Jwmuhq9mMexUyUR0aHUiODa9RVDDCz1Y1YEWCTYN68jmAeQYD_vJ54XgQp582xLPXDIr90nTTO2uKhyKiRdiXRWulscZ0rWJS1mLys47yVaA_celj8qcYTXYClRNee1eAENgp1fmgFansgzdA_3DDKPXCoMYKh-X9-1dmHX78SpN7_6zJfSX46cbrzKRIt4T3f0v154BNhkPlV6Oolf2y4sV8-MSKqbnhiKgHgTf5X-H7IgzmD86vtQo8xS5b4hMezxnwrX8wEpA9cVHGY2S6M8kktpTedMXl6MKekHCxdkbWwFkat6wNDcxbAtl_LhNZVmuwIFDhSrE7r1MXW3BHoFXhbOHedcLQaGXm_PUGowqo2bRgR3vhhUNK7cDKVwAy8N9UDh-5c3aFzdzt5PBbDk0HcGFl3zO_TZNVlSACvm1qUUY1yPEf34SPfO6nkKHU-gluP0-7LW5GXVMZTrfzSCZYo7hDp25K2a2ki_DIhRjepBnOIVItR4hAUot07b2erkwjDfEYrVpSle4NpwnC1ktIeUEL-2veuUYIgKer-m6oTFmHPclYvuDSrYqlVh0VF8CtNo6lW3kzqXncrRLD3fPFvDa1dObNpZ5B1QnkJ_0G00]--></g></svg>